<svg xmlns="http://www.w3.org/2000/svg" viewBox="0 0 64 64" role="img" aria-label="Book with worm favicon">
  <defs>
    <linearGradient id="cover" x1="0" x2="1" y1="0" y2="1">
      <stop offset="0%" stop-color="#6f4a24" />
      <stop offset="100%" stop-color="#3a2614" />
    </linearGradient>
    <linearGradient id="pages" x1="0" x2="1" y1="0" y2="1">
      <stop offset="0%" stop-color="#f8ecd1" />
      <stop offset="100%" stop-color="#e6d2a7" />
    </linearGradient>
  </defs>

  <rect x="10" y="11" width="44" height="42" rx="8" fill="url(#cover)" />
  <path d="M18 16h22c4.4 0 8 3.6 8 8v20c-2.1-1.8-5-2.8-8-2.8H18c-1.1 0-2 .9-2 2V18c0-1.1.9-2 2-2Z" fill="url(#pages)" />
  <path d="M40 16h4c1.1 0 2 .9 2 2v24.2c-1.7-.7-3.8-1-6-1V16Z" fill="#dcc59a" />
  <path d="M22 22h16" stroke="#b79e73" stroke-linecap="round" stroke-width="2" />
  <path d="M22 28h13" stroke="#b79e73" stroke-linecap="round" stroke-width="2" />
  <path d="M22 34h11" stroke="#b79e73" stroke-linecap="round" stroke-width="2" />

  <path d="M24 47c3.5-6.6 9.4-8.6 14.2-6.1 3 1.6 4.8 4.6 4.8 7.6" fill="none" stroke="#6ebf6a" stroke-linecap="round" stroke-width="4.5" />
  <circle cx="24" cy="47" r="4.2" fill="#86d77f" />
  <circle cx="22.7" cy="45.9" r="0.7" fill="#1d2518" />
  <circle cx="25.3" cy="45.9" r="0.7" fill="#1d2518" />
  <path d="M22.5 48.8c.9.8 2.1.8 3 0" fill="none" stroke="#1d2518" stroke-linecap="round" stroke-width="1.2" />
</svg>
